<svg xmlns="http://www.w3.org/2000/svg" viewBox="0 0 24 24">
  <path fill="#000000" d="M18.71 19.5c-.83 1.24-1.71 2.45-3.05 2.47-1.33.03-1.76-.79-3.29-.79-1.52 0-2 .77-3.26.82-1.31.05-2.31-1.33-3.14-2.57-1.71-2.47-3.01-6.98-1.26-10.03.87-1.52 2.43-2.48 4.12-2.51 1.29-.02 2.5.87 3.29.87.78 0 2.26-1.07 3.81-.91.65.03 2.47.26 3.64 1.98-.09.06-2.17 1.26-2.15 3.79.03 3.02 2.65 4.03 2.68 4.04-.03.07-.42 1.44-1.39 2.84ZM13 3.5c.73-.83 1.94-1.46 2.94-1.5.13 1.17-.34 2.35-1.04 3.19-.69.85-1.83 1.51-2.95 1.42-.15-1.15.41-2.35 1.05-3.11Z"/>
</svg>
